STARTFONT 2.1
FONT -Adobe-ITC Lubalin Graph-Book-O-Normal--18-180-75-75-P-105-ISO8859-15
SIZE 18 75 75
FONTBOUNDINGBOX 23 23 -1 -4

STARTPROPERTIES 30
FOUNDRY "Adobe"
FAMILY_NAME "ITC Lubalin Graph"
WEIGHT_NAME "Book"
SLANT "O"
SETWIDTH_NAME "Normal"
ADD_STYLE_NAME ""
PIXEL_SIZE 18
POINT_SIZE 180
RESOLUTION_X 75
RESOLUTION_Y 75
SPACING "P"
AVERAGE_WIDTH 105
CHARSET_REGISTRY "ISO8859"
CHARSET_ENCODING "15"
CAP_HEIGHT 14
X_HEIGHT 10
FACE_NAME "ITC Lubalin Graph Book Oblique"
COPYRIGHT "Copyright (c) 1984, 1987 Adobe Systems Incorporated. All Rights Reserved. Copyright (c) 1988, 1991 Digital Equipment Corporation. All Rights Reserved."
NOTICE "ITC Lubalin Graph is a registered trademark of International Typeface Corporation."
_DEC_DEVICE_FONTNAMES "PS=LubalinGraph-BookOblique"
_DEC_PRODUCTINFO "DECwindows Fonts V2.2, 07-Nov-1991"
RELATIVE_SETWIDTH 50
RELATIVE_WEIGHT 40
CHARSET_COLLECTIONS "ASCII ISO8859-1 ADOBE-STANDARD"
FULL_NAME "ITC Lubalin Graph Book Oblique"
WEIGHT 10
QUAD_WIDTH 12
DEFAULT_CHAR 32
FONT_DESCENT 4
FONT_ASCENT 17
ENDPROPERTIES

CHARS 191

STARTCHAR space
ENCODING 32
SWIDTH 300 0
DWIDTH 4 0
BBX 1 1 1 0
BITMAP
00
ENDCHAR

STARTCHAR exclam
ENCODING 33
SWIDTH 140 0
DWIDTH 5 0
BBX 3 14 2 0
BITMAP
20
20
20
40
40
40
40
80
80
80
00
00
80
80
ENDCHAR

STARTCHAR quotedbl
ENCODING 34
SWIDTH 280 0
DWIDTH 5 0
BBX 4 5 2 9
BITMAP
50
50
50
A0
A0
ENDCHAR

STARTCHAR numbersign
ENCODING 35
SWIDTH 580 0
DWIDTH 11 0
BBX 11 12 1 1
BITMAP
0480
0480
0480
0480
7FE0
0900
0900
FFC0
1200
1200
1200
1200
ENDCHAR

STARTCHAR dollar
ENCODING 36
SWIDTH 580 0
DWIDTH 11 0
BBX 10 16 1 -2
BITMAP
0200
0F40
14C0
2440
2440
2400
1800
0C00
0A00
0900
9100
9100
D200
BC00
2000
2000
ENDCHAR

STARTCHAR percent
ENCODING 37
SWIDTH 800 0
DWIDTH 14 0
BBX 11 14 2 0
BITMAP
3840
4440
8480
8900
7100
0200
0400
0400
0800
11C0
1220
2420
4440
4380
ENDCHAR

STARTCHAR ampersand
ENCODING 38
SWIDTH 720 0
DWIDTH 14 0
BBX 14 14 1 0
BITMAP
0700
0880
1080
1080
1100
0A1C
1C10
2220
4120
80C0
80C0
8120
4210
3C08
ENDCHAR

STARTCHAR quoteright
ENCODING 39
SWIDTH 200 0
DWIDTH 4 0
BBX 2 4 3 10
BITMAP
40
40
80
80
ENDCHAR

STARTCHAR parenleft
ENCODING 40
SWIDTH 340 0
DWIDTH 7 0
BBX 7 17 1 -3
BITMAP
06
08
10
20
20
40
40
80
80
80
80
80
40
40
40
20
10
ENDCHAR

STARTCHAR parenright
ENCODING 41
SWIDTH 340 0
DWIDTH 7 0
BBX 7 17 0 -3
BITMAP
10
08
04
04
02
02
02
02
02
02
04
04
08
08
10
20
C0
ENDCHAR

STARTCHAR asterisk
ENCODING 42
SWIDTH 340 0
DWIDTH 8 0
BBX 6 5 3 9
BITMAP
48
30
FC
70
90
ENDCHAR

STARTCHAR plus
ENCODING 43
SWIDTH 660 0
DWIDTH 11 0
BBX 8 9 2 2
BITMAP
08
08
08
08
FF
10
10
10
10
ENDCHAR

STARTCHAR comma
ENCODING 44
SWIDTH 300 0
DWIDTH 5 0
BBX 2 4 1 -2
BITMAP
40
40
80
80
ENDCHAR

STARTCHAR minus
ENCODING 45
SWIDTH 660 0
DWIDTH 11 0
BBX 9 1 2 6
BITMAP
FF80
ENDCHAR

STARTCHAR period
ENCODING 46
SWIDTH 300 0
DWIDTH 5 0
BBX 1 2 2 0
BITMAP
80
80
ENDCHAR

STARTCHAR slash
ENCODING 47
SWIDTH 580 0
DWIDTH 11 0
BBX 10 16 1 -2
BITMAP
0040
0040
0080
0100
0100
0200
0400
0400
0800
0800
1000
2000
2000
4000
8000
8000
ENDCHAR

STARTCHAR zero
ENCODING 48
SWIDTH 580 0
DWIDTH 11 0
BBX 11 14 1 0
BITMAP
0700
18C0
2040
2020
4020
4020
4020
8040
8040
8040
8080
4080
6300
1C00
ENDCHAR

STARTCHAR one
ENCODING 49
SWIDTH 580 0
DWIDTH 11 0
BBX 5 14 3 0
BITMAP
78
08
08
08
10
10
10
10
10
20
20
20
20
F8
ENDCHAR

STARTCHAR two
ENCODING 50
SWIDTH 580 0
DWIDTH 11 0
BBX 10 14 1 0
BITMAP
1F00
2080
4040
4040
0040
0080
0100
0200
0400
0800
1000
2080
4080
FF80
ENDCHAR

STARTCHAR three
ENCODING 51
SWIDTH 580 0
DWIDTH 11 0
BBX 10 14 1 0
BITMAP
0780
0840
1040
0040
0080
0700
0100
0080
0080
0080
8080
8100
4300
3C00
ENDCHAR

STARTCHAR four
ENCODING 52
SWIDTH 580 0
DWIDTH 11 0
BBX 9 14 1 0
BITMAP
0080
0180
0280
0480
0880
1100
2100
2100
4100
8200
FF80
0200
0200
0F80
ENDCHAR

STARTCHAR five
ENCODING 53
SWIDTH 580 0
DWIDTH 11 0
BBX 10 14 1 0
BITMAP
1FC0
1000
1000
2000
2000
5E00
6100
0080
0080
0080
0080
8100
4300
3C00
ENDCHAR

STARTCHAR six
ENCODING 54
SWIDTH 580 0
DWIDTH 11 0
BBX 9 14 1 0
BITMAP
0200
0400
0800
1000
2000
5E00
6100
8080
8080
8080
8080
4100
6300
1C00
ENDCHAR

STARTCHAR seven
ENCODING 55
SWIDTH 580 0
DWIDTH 11 0
BBX 8 14 3 0
BITMAP
FF
81
82
02
04
08
08
10
10
20
40
40
80
80
ENDCHAR

STARTCHAR eight
ENCODING 56
SWIDTH 580 0
DWIDTH 11 0
BBX 10 14 1 0
BITMAP
0780
0840
1040
1040
1080
0F00
3100
4080
8080
8080
8080
8100
4300
3C00
ENDCHAR

STARTCHAR nine
ENCODING 57
SWIDTH 580 0
DWIDTH 11 0
BBX 9 14 2 0
BITMAP
1E00
6100
4080
8080
8080
8100
8100
4200
3E00
0400
0800
1000
2000
4000
ENDCHAR

STARTCHAR colon
ENCODING 58
SWIDTH 300 0
DWIDTH 5 0
BBX 2 9 2 0
BITMAP
40
40
00
00
00
00
00
80
80
ENDCHAR

STARTCHAR semicolon
ENCODING 59
SWIDTH 300 0
DWIDTH 5 0
BBX 3 11 1 -2
BITMAP
20
20
00
00
00
00
00
40
40
80
80
ENDCHAR

STARTCHAR less
ENCODING 60
SWIDTH 660 0
DWIDTH 12 0
BBX 10 9 1 1
BITMAP
00C0
0300
0C00
3000
C000
3000
0C00
0300
00C0
ENDCHAR

STARTCHAR equal
ENCODING 61
SWIDTH 660 0
DWIDTH 11 0
BBX 10 4 1 4
BITMAP
7FC0
0000
0000
FF80
ENDCHAR

STARTCHAR greater
ENCODING 62
SWIDTH 660 0
DWIDTH 12 0
BBX 10 9 2 1
BITMAP
C000
3000
0C00
0300
00C0
0300
0C00
3000
C000
ENDCHAR

STARTCHAR question
ENCODING 63
SWIDTH 520 0
DWIDTH 9 0
BBX 8 14 2 0
BITMAP
3C
42
81
81
01
02
0C
10
20
40
40
00
40
40
ENDCHAR

STARTCHAR at
ENCODING 64
SWIDTH 900 0
DWIDTH 16 0
BBX 15 14 2 0
BITMAP
07F0
180C
2004
43B2
4C62
8842
9044
9084
9088
9190
8EE0
4008
3030
0FC0
ENDCHAR

STARTCHAR A
ENCODING 65
SWIDTH 820 0
DWIDTH 15 0
BBX 15 14 0 0
BITMAP
01C0
0040
00A0
00A0
0120
0220
0210
0410
07F0
0810
1010
1008
2008
F83E
ENDCHAR

STARTCHAR B
ENCODING 66
SWIDTH 580 0
DWIDTH 11 0
BBX 11 14 0 0
BITMAP
3FC0
0820
0820
0820
1020
1040
1F80
1040
1040
2040
2040
2040
2080
FF00
ENDCHAR

STARTCHAR C
ENCODING 67
SWIDTH 740 0
DWIDTH 14 0
BBX 13 14 1 0
BITMAP
03E8
0C18
3008
2000
4000
4000
8000
8000
8000
8000
4000
4010
3060
0F80
ENDCHAR

STARTCHAR D
ENCODING 68
SWIDTH 720 0
DWIDTH 14 0
BBX 14 14 0 0
BITMAP
3FE0
0818
0804
0804
1004
1004
1004
1004
1004
2008
2008
2010
2060
FF80
ENDCHAR

STARTCHAR E
ENCODING 69
SWIDTH 560 0
DWIDTH 10 0
BBX 11 14 0 0
BITMAP
3FE0
0820
0820
0800
1000
1000
1F80
1000
1000
2000
2000
2080
2080
FF80
ENDCHAR

STARTCHAR F
ENCODING 70
SWIDTH 560 0
DWIDTH 10 0
BBX 11 14 0 0
BITMAP
3FE0
0820
0820
0800
1000
1000
1F80
1000
1000
2000
2000
2000
2000
F800
ENDCHAR

STARTCHAR G
ENCODING 71
SWIDTH 780 0
DWIDTH 15 0
BBX 13 14 1 0
BITMAP
03E8
0C18
3008
2000
4000
4000
8000
8000
83F8
8010
4010
4030
3050
0F90
ENDCHAR

STARTCHAR H
ENCODING 72
SWIDTH 720 0
DWIDTH 13 0
BBX 15 14 0 0
BITMAP
3E3E
0808
0808
0808
1010
1010
1FF0
1010
1010
2020
2020
2020
2020
F8F8
ENDCHAR

STARTCHAR I
ENCODING 73
SWIDTH 300 0
DWIDTH 6 0
BBX 7 14 0 0
BITMAP
3E
08
08
08
10
10
10
10
10
20
20
20
20
F8
ENDCHAR

STARTCHAR J
ENCODING 74
SWIDTH 520 0
DWIDTH 10 0
BBX 11 14 0 0
BITMAP
03E0
0080
0080
0080
0100
0100
0100
0100
0100
0200
8200
8200
4400
3800
ENDCHAR

STARTCHAR K
ENCODING 75
SWIDTH 700 0
DWIDTH 13 0
BBX 13 14 0 0
BITMAP
3E78
0820
0840
0880
1100
1200
1400
1800
1400
2200
2100
2080
2040
F8F0
ENDCHAR

STARTCHAR L
ENCODING 76
SWIDTH 520 0
DWIDTH 10 0
BBX 9 14 0 0
BITMAP
3E00
0800
0800
0800
1000
1000
1000
1000
1000
2000
2000
2080
2080
FF80
ENDCHAR

STARTCHAR M
ENCODING 77
SWIDTH 980 0
DWIDTH 18 0
BBX 19 14 0 0
BITMAP
3C01E0
0C0180
0C0280
0A0280
120500
120900
120900
111100
111100
212200
212200
20C200
208200
F88F80
ENDCHAR

STARTCHAR N
ENCODING 78
SWIDTH 800 0
DWIDTH 15 0
BBX 17 14 0 0
BITMAP
3C0F80
0C0200
0A0200
0A0200
110400
110400
108400
108400
104400
204800
202800
202800
201800
F81800
ENDCHAR

STARTCHAR O
ENCODING 79
SWIDTH 800 0
DWIDTH 15 0
BBX 13 14 2 0
BITMAP
07C0
1830
2010
4008
4008
8008
8008
8008
8010
8010
8020
4060
6080
1F00
ENDCHAR

STARTCHAR P
ENCODING 80
SWIDTH 580 0
DWIDTH 12 0
BBX 12 14 0 0
BITMAP
3FC0
0820
0810
0810
1010
1020
1060
1F80
1000
2000
2000
2000
2000
F800
ENDCHAR

STARTCHAR Q
ENCODING 81
SWIDTH 860 0
DWIDTH 15 0
BBX 14 14 1 0
BITMAP
03E0
0C18
3008
2004
4004
4004
8004
8004
8004
9E08
6188
4050
3064
0F9C
ENDCHAR

STARTCHAR R
ENCODING 82
SWIDTH 640 0
DWIDTH 13 0
BBX 13 14 0 0
BITMAP
3FE0
0810
0808
0808
1008
1008
1010
13E0
1100
2080
2040
2020
2010
F838
ENDCHAR

STARTCHAR S
ENCODING 83
SWIDTH 500 0
DWIDTH 9 0
BBX 10 14 0 0
BITMAP
0F40
10C0
2040
2000
2000
3000
1C00
0300
0080
0080
0080
8100
C300
BC00
ENDCHAR

STARTCHAR T
ENCODING 84
SWIDTH 540 0
DWIDTH 10 0
BBX 9 14 2 0
BITMAP
FF80
8880
8880
0800
1000
1000
1000
1000
1000
2000
2000
2000
2000
F800
ENDCHAR

STARTCHAR U
ENCODING 85
SWIDTH 700 0
DWIDTH 13 0
BBX 13 14 2 0
BITMAP
F8F8
2020
2020
2020
4040
4040
4040
4040
4040
8080
8080
8080
4100
3E00
ENDCHAR

STARTCHAR V
ENCODING 86
SWIDTH 780 0
DWIDTH 15 0
BBX 15 14 2 0
BITMAP
F83E
2008
2010
2010
1020
1020
1040
1040
0880
0880
0900
0500
0600
0600
ENDCHAR

STARTCHAR W
ENCODING 87
SWIDTH 1040 0
DWIDTH 19 0
BBX 19 14 2 0
BITMAP
F843E0
204080
204080
20A100
10A100
10A100
112200
112200
111200
0A1400
0A1400
0A1400
0C1800
0C1800
ENDCHAR

STARTCHAR X
ENCODING 88
SWIDTH 740 0
DWIDTH 14 0
BBX 15 14 0 0
BITMAP
3E3E
0808
0810
0420
0240
0280
0100
0100
0280
0480
0840
1020
2020
F8F8
ENDCHAR

STARTCHAR Y
ENCODING 89
SWIDTH 680 0
DWIDTH 13 0
BBX 13 14 2 0
BITMAP
F8F8
2020
2040
1040
1080
1100
0900
0A00
0400
0400
0800
0800
0800
3E00
ENDCHAR

STARTCHAR Z
ENCODING 90
SWIDTH 520 0
DWIDTH 10 0
BBX 11 14 0 0
BITMAP
3FE0
2020
2040
0080
0100
0200
0400
0400
0800
1000
2000
4080
8080
FF80
ENDCHAR

STARTCHAR bracketleft
ENCODING 91
SWIDTH 300 0
DWIDTH 6 0
BBX 6 17 1 -3
BITMAP
1C
10
10
10
20
20
20
20
20
40
40
40
40
80
80
80
E0
ENDCHAR

STARTCHAR backslash
ENCODING 92
SWIDTH 580 0
DWIDTH 7 0
BBX 3 14 3 0
BITMAP
80
80
80
80
80
40
40
40
40
40
20
20
20
20
ENDCHAR

STARTCHAR bracketright
ENCODING 93
SWIDTH 300 0
DWIDTH 6 0
BBX 6 17 0 -3
BITMAP
1C
04
04
04
08
08
08
08
10
10
10
10
10
20
20
20
E0
ENDCHAR

STARTCHAR asciicircum
ENCODING 94
SWIDTH 660 0
DWIDTH 11 0
BBX 8 10 2 4
BITMAP
08
08
14
14
22
22
42
41
81
81
ENDCHAR

STARTCHAR underscore
ENCODING 95
SWIDTH 500 0
DWIDTH 9 0
BBX 9 1 0 -3
BITMAP
FF80
ENDCHAR

STARTCHAR quoteleft
ENCODING 96
SWIDTH 200 0
DWIDTH 4 0
BBX 2 4 3 10
BITMAP
80
80
40
40
ENDCHAR

STARTCHAR a
ENCODING 97
SWIDTH 660 0
DWIDTH 13 0
BBX 13 10 1 0
BITMAP
0F38
30A0
4060
4020
8020
8040
8040
40C0
6140
1E70
ENDCHAR

STARTCHAR b
ENCODING 98
SWIDTH 660 0
DWIDTH 13 0
BBX 13 14 0 0
BITMAP
3800
0800
0800
0800
13C0
1430
1810
1008
1008
2008
2010
3010
2860
E780
ENDCHAR

STARTCHAR c
ENCODING 99
SWIDTH 560 0
DWIDTH 10 0
BBX 10 10 0 0
BITMAP
0F40
30C0
4040
4000
8000
8000
8000
4080
6100
1E00
ENDCHAR

STARTCHAR d
ENCODING 100
SWIDTH 660 0
DWIDTH 12 0
BBX 12 14 0 0
BITMAP
0070
0010
0010
0010
0F20
30A0
4060
4020
8020
8040
8040
40C0
6140
1E70
ENDCHAR

STARTCHAR e
ENCODING 101
SWIDTH 580 0
DWIDTH 11 0
BBX 10 10 1 0
BITMAP
0F00
3080
4040
4040
FFC0
8000
8000
4080
6100
1E00
ENDCHAR

STARTCHAR f
ENCODING 102
SWIDTH 300 0
DWIDTH 5 0
BBX 8 14 0 0
BITMAP
03
04
08
08
3C
10
10
10
10
20
20
20
20
F8
ENDCHAR

STARTCHAR g
ENCODING 103
SWIDTH 660 0
DWIDTH 12 0
BBX 13 13 0 -3
BITMAP
0F38
30A0
4060
4020
8020
8040
8040
40C0
6140
1E40
0080
4080
3F00
ENDCHAR

STARTCHAR h
ENCODING 104
SWIDTH 640 0
DWIDTH 12 0
BBX 12 14 0 0
BITMAP
3800
0800
0800
0800
1780
1840
1020
1020
1020
2040
2040
2040
2040
F9F0
ENDCHAR

STARTCHAR i
ENCODING 105
SWIDTH 260 0
DWIDTH 5 0
BBX 5 14 0 0
BITMAP
08
08
00
00
70
10
10
10
10
20
20
20
20
F8
ENDCHAR

STARTCHAR j
ENCODING 106
SWIDTH 240 0
DWIDTH 4 0
BBX 6 17 -1 -3
BITMAP
04
04
00
00
38
08
08
08
08
10
10
10
10
10
20
20
C0
ENDCHAR

STARTCHAR k
ENCODING 107
SWIDTH 580 0
DWIDTH 11 0
BBX 11 14 0 0
BITMAP
3800
0800
0800
0800
11E0
1080
1100
1200
1400
3800
2400
2200
2100
FBC0
ENDCHAR

STARTCHAR l
ENCODING 108
SWIDTH 280 0
DWIDTH 5 0
BBX 5 14 0 0
BITMAP
38
08
08
08
10
10
10
10
10
20
20
20
20
F8
ENDCHAR

STARTCHAR m
ENCODING 109
SWIDTH 980 0
DWIDTH 17 0
BBX 17 10 0 0
BITMAP
771C00
18A200
104100
104100
104100
208200
208200
208200
208200
FBEF80
ENDCHAR

STARTCHAR n
ENCODING 110
SWIDTH 660 0
DWIDTH 12 0
BBX 12 10 0 0
BITMAP
7780
1840
1020
1020
1020
2040
2040
2040
2040
F9F0
ENDCHAR

STARTCHAR o
ENCODING 111
SWIDTH 580 0
DWIDTH 11 0
BBX 11 10 0 0
BITMAP
0F00
30C0
6040
4020
8020
8020
8040
40C0
6180
1E00
ENDCHAR

STARTCHAR p
ENCODING 112
SWIDTH 660 0
DWIDTH 13 0
BBX 14 13 -1 -3
BITMAP
39E0
0A18
0C08
0804
0804
1004
1008
1808
1430
13C0
2000
2000
F800
ENDCHAR

STARTCHAR q
ENCODING 113
SWIDTH 660 0
DWIDTH 12 0
BBX 13 13 0 -3
BITMAP
0F38
30A0
4060
4020
8020
8040
8040
40C0
6140
1E40
0080
0080
03E0
ENDCHAR

STARTCHAR r
ENCODING 114
SWIDTH 360 0
DWIDTH 7 0
BBX 8 10 0 0
BITMAP
73
14
18
10
10
20
20
20
20
F8
ENDCHAR

STARTCHAR s
ENCODING 115
SWIDTH 420 0
DWIDTH 8 0
BBX 8 10 0 0
BITMAP
1D
23
41
40
30
0C
02
82
C6
BC
ENDCHAR

STARTCHAR t
ENCODING 116
SWIDTH 320 0
DWIDTH 6 0
BBX 5 13 1 0
BITMAP
10
10
10
F8
20
20
20
20
40
40
40
40
70
ENDCHAR

STARTCHAR u
ENCODING 117
SWIDTH 640 0
DWIDTH 11 0
BBX 11 10 0 0
BITMAP
E1C0
2040
2040
2040
4040
4080
4080
4080
2180
1EE0
ENDCHAR

STARTCHAR v
ENCODING 118
SWIDTH 640 0
DWIDTH 10 0
BBX 11 10 0 0
BITMAP
F1E0
2080
2080
2100
1100
1200
1200
1400
0C00
0C00
ENDCHAR

STARTCHAR w
ENCODING 119
SWIDTH 900 0
DWIDTH 16 0
BBX 17 10 0 0
BITMAP
F80F80
208200
208200
214400
114400
124800
124800
0A5000
0C3000
0C3000
ENDCHAR

STARTCHAR x
ENCODING 120
SWIDTH 600 0
DWIDTH 10 0
BBX 12 10 -1 0
BITMAP
78F0
1040
0880
0500
0600
0600
0900
1080
2040
F1E0
ENDCHAR

STARTCHAR y
ENCODING 121
SWIDTH 640 0
DWIDTH 11 0
BBX 12 13 0 -3
BITMAP
F9F0
2040
2040
1080
1100
1100
0A00
0A00
0C00
0800
0800
1000
7C00
ENDCHAR

STARTCHAR z
ENCODING 122
SWIDTH 420 0
DWIDTH 9 0
BBX 9 10 0 0
BITMAP
7F80
4100
4200
0400
0800
1000
2000
4100
8100
FF00
ENDCHAR

STARTCHAR braceleft
ENCODING 123
SWIDTH 300 0
DWIDTH 6 0
BBX 6 17 1 -3
BITMAP
0C
10
10
10
20
20
20
40
80
40
40
40
80
80
80
80
60
ENDCHAR

STARTCHAR bar
ENCODING 124
SWIDTH 660 0
DWIDTH 11 0
BBX 3 14 4 0
BITMAP
20
20
20
20
40
40
40
40
40
80
80
80
80
80
ENDCHAR

STARTCHAR braceright
ENCODING 125
SWIDTH 300 0
DWIDTH 6 0
BBX 6 17 0 -3
BITMAP
18
04
04
04
08
08
08
08
04
08
10
10
10
20
20
20
C0
ENDCHAR

STARTCHAR asciitilde
ENCODING 126
SWIDTH 660 0
DWIDTH 12 0
BBX 10 2 2 5
BITMAP
7840
8780
ENDCHAR

STARTCHAR space
ENCODING 160
SWIDTH 300 0
DWIDTH 4 0
BBX 1 1 1 0
BITMAP
00
ENDCHAR

STARTCHAR exclamdown
ENCODING 161
SWIDTH 140 0
DWIDTH 5 0
BBX 3 14 1 -4
BITMAP
20
20
00
00
20
20
20
40
40
40
40
80
80
80
ENDCHAR

STARTCHAR cent
ENCODING 162
SWIDTH 580 0
DWIDTH 10 0
BBX 9 12 2 1
BITMAP
0400
0400
1E80
6B00
4900
8800
9000
9200
9400
7800
2000
2000
ENDCHAR

STARTCHAR sterling
ENCODING 163
SWIDTH 640 0
DWIDTH 12 0
BBX 10 14 1 0
BITMAP
0F40
30C0
4040
4000
4000
2000
1000
7E00
0800
0800
0840
1040
2080
FF00
ENDCHAR

STARTCHAR EuroSign
ENCODING 164
SWIDTH 611 0
DWIDTH 11 0
BBX 12 10 0 0
BITMAP
03D0
0C30
1010
FF80
2000
2000
FF80
2020
10C0
0F80
ENDCHAR

STARTCHAR yen
ENCODING 165
SWIDTH 740 0
DWIDTH 14 0
BBX 13 14 2 0
BITMAP
F8F8
2020
2040
1040
1080
1100
7BC0
0C00
FF80
0800
0800
0800
0800
3E00
ENDCHAR

STARTCHAR Scaron
ENCODING 166
SWIDTH 500 0
DWIDTH 9 0
BBX 10 19 0 0
BITMAP
1100
0A00
0400
0000
0000
0F40
10C0
2040
2000
2000
3000
1C00
0300
0080
0080
0080
8100
C300
BC00
ENDCHAR

STARTCHAR section
ENCODING 167
SWIDTH 440 0
DWIDTH 8 0
BBX 9 17 0 -3
BITMAP
0700
0880
1080
1000
0800
1C00
2200
4100
4100
4100
2200
1C00
0800
0400
8400
8800
7000
ENDCHAR

STARTCHAR scaron
ENCODING 168
SWIDTH 420 0
DWIDTH 8 0
BBX 8 15 0 0
BITMAP
22
14
08
00
00
1D
23
41
40
30
0C
02
82
C6
BC
ENDCHAR

STARTCHAR copyright
ENCODING 169
SWIDTH 820 0
DWIDTH 15 0
BBX 14 14 1 0
BITMAP
07C0
1830
2008
43C8
4C44
8804
9004
9004
9044
8888
4708
4010
3060
0F80
ENDCHAR

STARTCHAR ordfeminine
ENCODING 170
SWIDTH 420 0
DWIDTH 8 0
BBX 8 8 1 6
BITMAP
1B
26
42
44
4C
36
00
FE
ENDCHAR

STARTCHAR guillemotleft
ENCODING 171
SWIDTH 320 0
DWIDTH 7 0
BBX 6 5 1 3
BITMAP
24
48
90
48
24
ENDCHAR

STARTCHAR logicalnot
ENCODING 172
SWIDTH 660 0
DWIDTH 12 0
BBX 10 5 2 3
BITMAP
FFC0
0040
0040
0080
0080
ENDCHAR

STARTCHAR hyphen
ENCODING 173
SWIDTH 300 0
DWIDTH 6 0
BBX 5 1 1 5
BITMAP
F8
ENDCHAR

STARTCHAR registered
ENCODING 174
SWIDTH 820 0
DWIDTH 15 0
BBX 14 14 1 0
BITMAP
07C0
1830
2008
47C8
4424
8824
8844
8B84
9104
9088
5048
4010
3060
0F80
ENDCHAR

STARTCHAR macron
ENCODING 175
SWIDTH 460 0
DWIDTH 9 0
BBX 5 1 4 13
BITMAP
F8
ENDCHAR

STARTCHAR degree
ENCODING 176
SWIDTH 400 0
DWIDTH 7 0
BBX 5 5 2 9
BITMAP
70
88
88
88
70
ENDCHAR

STARTCHAR plusminus
ENCODING 177
SWIDTH 660 0
DWIDTH 11 0
BBX 9 9 1 2
BITMAP
0400
0400
0400
7F80
0800
0800
0800
0000
FF00
ENDCHAR

STARTCHAR twosuperior
ENCODING 178
SWIDTH 348 0
DWIDTH 6 0
BBX 6 8 1 6
BITMAP
3C
44
44
08
10
20
44
FC
ENDCHAR

STARTCHAR threesuperior
ENCODING 179
SWIDTH 348 0
DWIDTH 6 0
BBX 6 8 1 6
BITMAP
3C
44
04
38
08
08
88
F0
ENDCHAR

STARTCHAR Zcaron
ENCODING 180
SWIDTH 520 0
DWIDTH 10 0
BBX 11 19 0 0
BITMAP
0880
0500
0200
0000
0000
3FE0
2020
2040
0080
0100
0200
0400
0400
0800
1000
2000
4080
8080
FF80
ENDCHAR

STARTCHAR mu
ENCODING 181
SWIDTH 640 0
DWIDTH 11 0
BBX 12 14 -1 -4
BITMAP
70E0
1020
1020
1020
2020
2040
2040
6040
50C0
4F70
4000
8000
8000
8000
ENDCHAR

STARTCHAR paragraph
ENCODING 182
SWIDTH 500 0
DWIDTH 10 0
BBX 9 17 2 -3
BITMAP
3F80
7A00
FA00
FA00
F400
F400
7400
1400
1400
2800
2800
2800
2800
5000
5000
5000
5000
ENDCHAR

STARTCHAR periodcentered
ENCODING 183
SWIDTH 300 0
DWIDTH 5 0
BBX 1 2 3 5
BITMAP
80
80
ENDCHAR

STARTCHAR zcaron
ENCODING 184
SWIDTH 420 0
DWIDTH 9 0
BBX 9 15 0 0
BITMAP
1100
0A00
0400
0000
0000
7F80
4100
4200
0400
0800
1000
2000
4100
8100
FF00
ENDCHAR

STARTCHAR onesuperior
ENCODING 185
SWIDTH 348 0
DWIDTH 6 0
BBX 3 8 2 6
BITMAP
60
20
20
20
40
40
40
E0
ENDCHAR

STARTCHAR ordmasculine
ENCODING 186
SWIDTH 340 0
DWIDTH 7 0
BBX 7 8 1 6
BITMAP
1C
22
42
42
44
38
00
FC
ENDCHAR

STARTCHAR guillemotright
ENCODING 187
SWIDTH 320 0
DWIDTH 7 0
BBX 6 5 1 3
BITMAP
90
48
24
48
90
ENDCHAR

STARTCHAR Ligature_OE
ENCODING 188
SWIDTH 1120 0
DWIDTH 21 0
BBX 21 14 1 0
BITMAP
03E3F8
0C1A08
300E08
200400
400400
400400
8007E0
800400
800800
800800
801800
403820
60C820
1F0FE0
ENDCHAR

STARTCHAR Ligature_oe
ENCODING 189
SWIDTH 1060 0
DWIDTH 19 0
BBX 19 10 0 0
BITMAP
0F0780
30D840
607020
402020
803FE0
802000
804000
40E040
619080
1E0F00
ENDCHAR

STARTCHAR Ydiaeresis
ENCODING 190
SWIDTH 680 0
DWIDTH 13 0
BBX 13 18 2 0
BITMAP
0240
0240
0000
0000
F8F8
2020
2040
1040
1080
1100
0900
0A00
0400
0400
0800
0800
0800
3E00
ENDCHAR

STARTCHAR questiondown
ENCODING 191
SWIDTH 520 0
DWIDTH 10 0
BBX 8 14 1 -4
BITMAP
02
02
00
02
02
04
08
30
40
80
81
81
42
3C
ENDCHAR

STARTCHAR Agrave
ENCODING 192
SWIDTH 820 0
DWIDTH 15 0
BBX 15 19 0 0
BITMAP
0600
0180
0060
0000
0000
01C0
0040
00A0
00A0
0120
0220
0210
0410
07F0
0810
1010
1008
2008
F83E
ENDCHAR

STARTCHAR Aacute
ENCODING 193
SWIDTH 820 0
DWIDTH 15 0
BBX 15 19 0 0
BITMAP
000C
0030
00C0
0000
0000
01C0
0040
00A0
00A0
0120
0220
0210
0410
07F0
0810
1010
1008
2008
F83E
ENDCHAR

STARTCHAR Acircumflex
ENCODING 194
SWIDTH 820 0
DWIDTH 15 0
BBX 15 19 0 0
BITMAP
0080
0140
0220
0000
0000
01C0
0040
00A0
00A0
0120
0220
0210
0410
07F0
0810
1010
1008
2008
F83E
ENDCHAR

STARTCHAR Atilde
ENCODING 195
SWIDTH 820 0
DWIDTH 15 0
BBX 15 18 0 0
BITMAP
0190
0260
0000
0000
01C0
0040
00A0
00A0
0120
0220
0210
0410
07F0
0810
1010
1008
2008
F83E
ENDCHAR

STARTCHAR Adieresis
ENCODING 196
SWIDTH 820 0
DWIDTH 15 0
BBX 15 18 0 0
BITMAP
0140
0140
0000
0000
01C0
0040
00A0
00A0
0120
0220
0210
0410
07F0
0810
1010
1008
2008
F83E
ENDCHAR

STARTCHAR Aring
ENCODING 197
SWIDTH 820 0
DWIDTH 15 0
BBX 15 19 0 0
BITMAP
00C0
0120
0120
00C0
0000
01C0
0040
00A0
00A0
0120
0220
0210
0410
07F0
0810
1010
1008
2008
F83E
ENDCHAR

STARTCHAR AE
ENCODING 198
SWIDTH 1000 0
DWIDTH 18 0
BBX 19 14 0 0
BITMAP
007FE0
001820
002820
004800
009000
011000
011F80
021000
07F000
082000
102000
102080
202080
F8FF80
ENDCHAR

STARTCHAR Ccedilla
ENCODING 199
SWIDTH 740 0
DWIDTH 14 0
BBX 13 18 1 -4
BITMAP
03E8
0C18
3008
2000
4000
4000
8000
8000
8000
8000
4000
4010
3060
0F80
0200
0600
0100
0600
ENDCHAR

STARTCHAR Egrave
ENCODING 200
SWIDTH 560 0
DWIDTH 10 0
BBX 11 19 0 0
BITMAP
0C00
0300
00C0
0000
0000
3FE0
0820
0820
0800
1000
1000
1F80
1000
1000
2000
2000
2080
2080
FF80
ENDCHAR

STARTCHAR Eacute
ENCODING 201
SWIDTH 560 0
DWIDTH 10 0
BBX 12 19 0 0
BITMAP
0030
00C0
0300
0000
0000
3FE0
0820
0820
0800
1000
1000
1F80
1000
1000
2000
2000
2080
2080
FF80
ENDCHAR

STARTCHAR Ecircumflex
ENCODING 202
SWIDTH 560 0
DWIDTH 10 0
BBX 11 19 0 0
BITMAP
0100
0280
0440
0000
0000
3FE0
0820
0820
0800
1000
1000
1F80
1000
1000
2000
2000
2080
2080
FF80
ENDCHAR

STARTCHAR Edieresis
ENCODING 203
SWIDTH 560 0
DWIDTH 10 0
BBX 11 18 0 0
BITMAP
0480
0480
0000
0000
3FE0
0820
0820
0800
1000
1000
1F80
1000
1000
2000
2000
2080
2080
FF80
ENDCHAR

STARTCHAR Igrave
ENCODING 204
SWIDTH 300 0
DWIDTH 6 0
BBX 7 19 0 0
BITMAP
60
18
06
00
00
3E
08
08
08
10
10
10
10
10
20
20
20
20
F8
ENDCHAR

STARTCHAR Iacute
ENCODING 205
SWIDTH 300 0
DWIDTH 6 0
BBX 8 19 0 0
BITMAP
03
0C
30
00
00
3E
08
08
08
10
10
10
10
10
20
20
20
20
F8
ENDCHAR

STARTCHAR Icircumflex
ENCODING 206
SWIDTH 300 0
DWIDTH 6 0
BBX 7 19 0 0
BITMAP
08
14
22
00
00
3E
08
08
08
10
10
10
10
10
20
20
20
20
F8
ENDCHAR

STARTCHAR Idieresis
ENCODING 207
SWIDTH 300 0
DWIDTH 6 0
BBX 7 18 0 0
BITMAP
12
12
00
00
3E
08
08
08
10
10
10
10
10
20
20
20
20
F8
ENDCHAR

STARTCHAR Eth
ENCODING 208
SWIDTH 720 0
DWIDTH 14 0
BBX 14 14 0 0
BITMAP
3FE0
0818
0804
0804
1004
1004
7E04
1004
1004
2008
2008
2010
2060
FF80
ENDCHAR

STARTCHAR Ntilde
ENCODING 209
SWIDTH 800 0
DWIDTH 15 0
BBX 17 18 0 0
BITMAP
00C800
013000
000000
000000
3C0F80
0C0200
0A0200
0A0200
110400
110400
108400
108400
104400
204800
202800
202800
201800
F81800
ENDCHAR

STARTCHAR Ograve
ENCODING 210
SWIDTH 800 0
DWIDTH 15 0
BBX 13 19 2 0
BITMAP
0C00
0300
00C0
0000
0000
07C0
1830
2010
4008
4008
8008
8008
8008
8010
8010
8020
4060
6080
1F00
ENDCHAR

STARTCHAR Oacute
ENCODING 211
SWIDTH 800 0
DWIDTH 15 0
BBX 13 19 2 0
BITMAP
0018
0060
0180
0000
0000
07C0
1830
2010
4008
4008
8008
8008
8008
8010
8010
8020
4060
6080
1F00
ENDCHAR

STARTCHAR Ocircumflex
ENCODING 212
SWIDTH 800 0
DWIDTH 15 0
BBX 13 19 2 0
BITMAP
0100
0280
0440
0000
0000
07C0
1830
2010
4008
4008
8008
8008
8008
8010
8010
8020
4060
6080
1F00
ENDCHAR

STARTCHAR Otilde
ENCODING 213
SWIDTH 800 0
DWIDTH 15 0
BBX 13 18 2 0
BITMAP
0640
0980
0000
0000
07C0
1830
2010
4008
4008
8008
8008
8008
8010
8010
8020
4060
6080
1F00
ENDCHAR

STARTCHAR Odieresis
ENCODING 214
SWIDTH 800 0
DWIDTH 15 0
BBX 13 18 2 0
BITMAP
0280
0280
0000
0000
07C0
1830
2010
4008
4008
8008
8008
8008
8010
8010
8020
4060
6080
1F00
ENDCHAR

STARTCHAR multiply
ENCODING 215
SWIDTH 660 0
DWIDTH 11 0
BBX 10 9 1 2
BITMAP
4040
2080
1100
0A00
0C00
1400
2200
4100
8080
ENDCHAR

STARTCHAR Oslash
ENCODING 216
SWIDTH 800 0
DWIDTH 15 0
BBX 14 14 1 0
BITMAP
03E4
0C18
3018
2024
4044
4084
8104
8204
8408
8808
9010
6030
60C0
9F00
ENDCHAR

STARTCHAR Ugrave
ENCODING 217
SWIDTH 700 0
DWIDTH 13 0
BBX 13 19 2 0
BITMAP
1800
0600
0180
0000
0000
F8F8
2020
2020
2020
4040
4040
4040
4040
4040
8080
8080
8080
4100
3E00
ENDCHAR

STARTCHAR Uacute
ENCODING 218
SWIDTH 700 0
DWIDTH 13 0
BBX 13 19 2 0
BITMAP
0018
0060
0180
0000
0000
F8F8
2020
2020
2020
4040
4040
4040
4040
4040
8080
8080
8080
4100
3E00
ENDCHAR

STARTCHAR Ucircumflex
ENCODING 219
SWIDTH 700 0
DWIDTH 13 0
BBX 13 19 2 0
BITMAP
0100
0280
0440
0000
0000
F8F8
2020
2020
2020
4040
4040
4040
4040
4040
8080
8080
8080
4100
3E00
ENDCHAR

STARTCHAR Udieresis
ENCODING 220
SWIDTH 700 0
DWIDTH 13 0
BBX 13 18 2 0
BITMAP
0480
0480
0000
0000
F8F8
2020
2020
2020
4040
4040
4040
4040
4040
8080
8080
8080
4100
3E00
ENDCHAR

STARTCHAR Yacute
ENCODING 221
SWIDTH 680 0
DWIDTH 13 0
BBX 13 18 2 0
BITMAP
0030
00C0
0300
0000
F8F8
2020
2040
1040
1080
1100
0900
0A00
0400
0400
0800
0800
0800
3E00
ENDCHAR

STARTCHAR Thorn
ENCODING 222
SWIDTH 580 0
DWIDTH 12 0
BBX 12 14 0 0
BITMAP
3E00
0800
0800
0FC0
0820
1010
1010
1010
1020
2060
3F80
2000
2000
F800
ENDCHAR

STARTCHAR germandbls
ENCODING 223
SWIDTH 580 0
DWIDTH 11 0
BBX 11 14 0 0
BITMAP
0380
0440
0820
0820
1020
1040
1380
1080
1040
2040
2040
2040
2880
E700
ENDCHAR

STARTCHAR agrave
ENCODING 224
SWIDTH 660 0
DWIDTH 13 0
BBX 13 14 1 0
BITMAP
0C00
0300
00C0
0000
0F38
30A0
4060
4020
8020
8040
8040
40C0
6140
1E70
ENDCHAR

STARTCHAR aacute
ENCODING 225
SWIDTH 660 0
DWIDTH 13 0
BBX 13 14 1 0
BITMAP
00C0
0300
0C00
0000
0F38
30A0
4060
4020
8020
8040
8040
40C0
6140
1E70
ENDCHAR

STARTCHAR acircumflex
ENCODING 226
SWIDTH 660 0
DWIDTH 13 0
BBX 13 14 1 0
BITMAP
0200
0500
0880
0000
0F38
30A0
4060
4020
8020
8040
8040
40C0
6140
1E70
ENDCHAR

STARTCHAR atilde
ENCODING 227
SWIDTH 660 0
DWIDTH 13 0
BBX 13 14 1 0
BITMAP
0320
04C0
0000
0000
0F38
30A0
4060
4020
8020
8040
8040
40C0
6140
1E70
ENDCHAR

STARTCHAR adieresis
ENCODING 228
SWIDTH 660 0
DWIDTH 13 0
BBX 13 14 1 0
BITMAP
0500
0500
0000
0000
0F38
30A0
4060
4020
8020
8040
8040
40C0
6140
1E70
ENDCHAR

STARTCHAR aring
ENCODING 229
SWIDTH 660 0
DWIDTH 13 0
BBX 13 15 1 0
BITMAP
0600
0900
0900
0600
0000
0F38
30A0
4060
4020
8020
8040
8040
40C0
6140
1E70
ENDCHAR

STARTCHAR ae
ENCODING 230
SWIDTH 1060 0
DWIDTH 19 0
BBX 19 10 0 0
BITMAP
0F2700
30A8C0
407040
402020
803FE0
804000
804000
40E040
615080
1E4F00
ENDCHAR

STARTCHAR ccedilla
ENCODING 231
SWIDTH 560 0
DWIDTH 10 0
BBX 10 14 0 -4
BITMAP
0F40
30C0
4040
4000
8000
8000
8000
4080
6100
1E00
0800
1800
0400
1800
ENDCHAR

STARTCHAR egrave
ENCODING 232
SWIDTH 580 0
DWIDTH 11 0
BBX 10 14 1 0
BITMAP
3000
0C00
0300
0000
0F00
3080
4040
4040
FFC0
8000
8000
4080
6100
1E00
ENDCHAR

STARTCHAR eacute
ENCODING 233
SWIDTH 580 0
DWIDTH 11 0
BBX 10 14 1 0
BITMAP
00C0
0300
0C00
0000
0F00
3080
4040
4040
FFC0
8000
8000
4080
6100
1E00
ENDCHAR

STARTCHAR ecircumflex
ENCODING 234
SWIDTH 580 0
DWIDTH 11 0
BBX 10 14 1 0
BITMAP
0200
0500
0880
0000
0F00
3080
4040
4040
FFC0
8000
8000
4080
6100
1E00
ENDCHAR

STARTCHAR edieresis
ENCODING 235
SWIDTH 580 0
DWIDTH 11 0
BBX 10 14 1 0
BITMAP
0500
0500
0000
0000
0F00
3080
4040
4040
FFC0
8000
8000
4080
6100
1E00
ENDCHAR

STARTCHAR igrave
ENCODING 236
SWIDTH 260 0
DWIDTH 5 0
BBX 6 14 -1 0
BITMAP
C0
30
0C
00
38
08
08
08
08
10
10
10
10
7C
ENDCHAR

STARTCHAR iacute
ENCODING 237
SWIDTH 260 0
DWIDTH 5 0
BBX 7 14 0 0
BITMAP
06
18
60
00
70
10
10
10
10
20
20
20
20
F8
ENDCHAR

STARTCHAR icircumflex
ENCODING 238
SWIDTH 260 0
DWIDTH 5 0
BBX 6 14 0 0
BITMAP
10
28
44
00
70
10
10
10
10
20
20
20
20
F8
ENDCHAR

STARTCHAR idieresis
ENCODING 239
SWIDTH 260 0
DWIDTH 5 0
BBX 5 14 0 0
BITMAP
50
50
00
00
70
10
10
10
10
20
20
20
20
F8
ENDCHAR

STARTCHAR eth
ENCODING 240
SWIDTH 580 0
DWIDTH 11 0
BBX 11 14 0 0
BITMAP
3180
0E00
1C00
6300
0F80
30C0
6040
4020
8020
8020
8040
40C0
6180
1E00
ENDCHAR

STARTCHAR ntilde
ENCODING 241
SWIDTH 660 0
DWIDTH 12 0
BBX 12 14 0 0
BITMAP
0320
04C0
0000
0000
7780
1840
1020
1020
1020
2040
2040
2040
2040
F9F0
ENDCHAR

STARTCHAR ograve
ENCODING 242
SWIDTH 580 0
DWIDTH 11 0
BBX 11 14 0 0
BITMAP
3000
0C00
0300
0000
0F00
30C0
6040
4020
8020
8020
8040
40C0
6180
1E00
ENDCHAR

STARTCHAR oacute
ENCODING 243
SWIDTH 580 0
DWIDTH 11 0
BBX 11 14 0 0
BITMAP
00C0
0300
0C00
0000
0F00
30C0
6040
4020
8020
8020
8040
40C0
6180
1E00
ENDCHAR

STARTCHAR ocircumflex
ENCODING 244
SWIDTH 580 0
DWIDTH 11 0
BBX 11 14 0 0
BITMAP
0200
0500
0880
0000
0F00
30C0
6040
4020
8020
8020
8040
40C0
6180
1E00
ENDCHAR

STARTCHAR otilde
ENCODING 245
SWIDTH 580 0
DWIDTH 11 0
BBX 11 14 0 0
BITMAP
0640
0980
0000
0000
0F00
30C0
6040
4020
8020
8020
8040
40C0
6180
1E00
ENDCHAR

STARTCHAR odieresis
ENCODING 246
SWIDTH 580 0
DWIDTH 11 0
BBX 11 14 0 0
BITMAP
0500
0500
0000
0000
0F00
30C0
6040
4020
8020
8020
8040
40C0
6180
1E00
ENDCHAR

STARTCHAR divide
ENCODING 247
SWIDTH 660 0
DWIDTH 11 0
BBX 8 9 2 2
BITMAP
08
08
00
00
FF
00
00
10
10
ENDCHAR

STARTCHAR oslash
ENCODING 248
SWIDTH 580 0
DWIDTH 11 0
BBX 11 10 0 0
BITMAP
0F20
30C0
60C0
4120
8220
8420
8840
50C0
6180
9E00
ENDCHAR

STARTCHAR ugrave
ENCODING 249
SWIDTH 640 0
DWIDTH 11 0
BBX 11 14 0 0
BITMAP
1800
0600
0180
0000
E1C0
2040
2040
2040
4040
4080
4080
4080
2180
1EE0
ENDCHAR

STARTCHAR uacute
ENCODING 250
SWIDTH 640 0
DWIDTH 11 0
BBX 11 14 0 0
BITMAP
00C0
0300
0C00
0000
E1C0
2040
2040
2040
4040
4080
4080
4080
2180
1EE0
ENDCHAR

STARTCHAR ucircumflex
ENCODING 251
SWIDTH 640 0
DWIDTH 11 0
BBX 11 14 0 0
BITMAP
0400
0A00
1100
0000
E1C0
2040
2040
2040
4040
4080
4080
4080
2180
1EE0
ENDCHAR

STARTCHAR udieresis
ENCODING 252
SWIDTH 640 0
DWIDTH 11 0
BBX 11 14 0 0
BITMAP
0A00
0A00
0000
0000
E1C0
2040
2040
2040
4040
4080
4080
4080
2180
1EE0
ENDCHAR

STARTCHAR yacute
ENCODING 253
SWIDTH 640 0
DWIDTH 11 0
BBX 12 18 0 -4
BITMAP
0060
0180
0600
0000
F9F0
2040
2040
1080
1100
1100
0A00
0A00
0C00
0800
0800
1000
1000
7C00
ENDCHAR

STARTCHAR thorn
ENCODING 254
SWIDTH 660 0
DWIDTH 13 0
BBX 14 18 -1 -4
BITMAP
1C00
0400
0400
0400
09E0
0A18
0C08
0804
0804
1004
1008
1808
1430
13C0
2000
2000
2000
F800
ENDCHAR

STARTCHAR ydieresis
ENCODING 255
SWIDTH 640 0
DWIDTH 11 0
BBX 12 18 0 -4
BITMAP
0500
0500
0000
0000
F9F0
2040
2040
1080
1100
1100
0A00
0A00
0C00
0800
0800
1000
1000
7C00
ENDCHAR
ENDFONT
